<?xml version="1.0" encoding="UTF-8"?>
<svg width="512" height="512" viewBox="0 0 24 24" xmlns="http://www.w3.org/2000/svg">
    <path fill="#FF69B4" d="M12 21.35l-1.45-1.32C5.4 15.36 2 12.28 2 8.5 2 5.42 4.42 3 7.5 3c1.74 0 3.41.81 4.5 2.09C13.09 3.81 14.76 3 16.5 3 19.58 3 22 5.42 22 8.5c0 3.78-3.4 6.86-8.55 11.54L12 21.35z"/>
    <path fill="white" d="M12 19l-1.2-1.1c-4.2-3.8-7-6.3-7-9.3C3.8 6.4 5.4 4.8 7.5 4.8c1.3 0 2.6.6 3.4 1.6h2.2c.8-1 2.1-1.6 3.4-1.6 2.1 0 3.7 1.6 3.7 3.8 0 3-2.8 5.5-7 9.3L12 19z"/>
</svg>
